<svg xmlns="http://www.w3.org/2000/svg" viewBox="0 0 512 512" width="512" height="512">
  <!-- Background Circle -->
  <circle cx="256" cy="256" r="256" fill="#4caf50"/>

  <!-- Maskable safe zone guide (80% of icon = 409.6px radius) -->
  <!-- This circle is for reference - the actual icon content should fit within it -->

  <!-- Shopping Cart Icon (centered and sized for safe zone) -->
  <g transform="translate(256, 256)">
    <!-- Cart Body -->
    <path d="M -80 -100 L -60 40 L 80 40 L 70 -100 Z"
          fill="white"
          stroke="white"
          stroke-width="8"
          stroke-linejoin="round"/>

    <!-- Cart Handle -->
    <path d="M -85 -100 L -100 -120 L -95 -125 L -80 -105"
          fill="none"
          stroke="white"
          stroke-width="10"
          stroke-linecap="round"
          stroke-linejoin="round"/>

    <!-- Cart Wheels -->
    <circle cx="-40" cy="65" r="15" fill="white"/>
    <circle cx="40" cy="65" r="15" fill="white"/>

    <!-- Checkmark inside cart (representing completed items) -->
    <path d="M -30 -20 L -10 10 L 40 -50"
          fill="none"
          stroke="#4caf50"
          stroke-width="12"
          stroke-linecap="round"
          stroke-linejoin="round"/>

    <!-- Cart Grid Lines (optional detail) -->
    <line x1="-50" y1="-70" x2="-45" y2="20" stroke="#4caf50" stroke-width="3" opacity="0.3"/>
    <line x1="-20" y1="-80" x2="-15" y2="20" stroke="#4caf50" stroke-width="3" opacity="0.3"/>
    <line x1="10" y1="-85" x2="15" y2="20" stroke="#4caf50" stroke-width="3" opacity="0.3"/>
    <line x1="40" y1="-90" x2="45" y2="20" stroke="#4caf50" stroke-width="3" opacity="0.3"/>
  </g>

  <!-- Decorative Elements (within safe zone) -->
  <!-- Small produce items floating around cart -->
  <circle cx="140" cy="140" r="12" fill="#81c784" opacity="0.8"/>
  <circle cx="370" cy="160" r="10" fill="#ffb74d" opacity="0.8"/>
  <circle cx="350" cy="350" r="11" fill="#e57373" opacity="0.8"/>
  <circle cx="150" cy="360" r="9" fill="#64b5f6" opacity="0.8"/>
</svg>
